PathFileType	4	(X/Y/Z)	C:\Users\JDoe\SprintMotion.trc
DataRate	CameraRate	NumFrames	NumMarkers	Units	OrigDataRate	OrigDataStartFrame	OrigNumFrames
250.00	250.00	       6	59	mm	250.00	296	       788
Frame#	Time	C7			T8			T12			R.AA			R.AC			R.Scapula			R.HeadHum			R.Hum			R.Epi.Med			R.Epi.Lat			R.Ulna			R.Wrist.Uln			R.Wrist.Rad			R.Hand			L.AA			L.AC			L.Scapula			L.HeadHum			L.Hum			L.Epi.Med			L.Epi.Lat			L.Ulna			L.Wrist.Uln			L.Wrist.Rad			L.Hand			Tete.H			Tete.D			Tete.G			Sacral			R.EIAS			LEIAS			R.Crete			L.Crete			R.GT			R.Hip			R.Knee.Med			R.Knee.Lat			R.TTA			R.Fibula			R.Ankle.Med			R.Ankle.Lat			R.Calca			R.Foot.Med			R.Foot.Lat			L.GT			L.Hip			L.Knee.Med			L.Knee.Lat			L.TTA			L.Fibula			L.Ankle.Med			L.Ankle.Lat			L.Calca			L.Foot.Med			L.Foot.Lat			StartG			StartD			StartAvt			StartArr			
		X1	Y1	Z1	X2	Y2	Z2	X3	Y3	Z3	X4	Y4	Z4	X5	Y5	Z5	X6	Y6	Z6	X7	Y7	Z7	X8	Y8	Z8	X9	Y9	Z9	X10	Y10	Z10	X11	Y11	Z11	X12	Y12	Z12	X13	Y13	Z13	X14	Y14	Z14	X15	Y15	Z15	X16	Y16	Z16	X17	Y17	Z17	X18	Y18	Z18	X19	Y19	Z19	X20	Y20	Z20	X21	Y21	Z21	X22	Y22	Z22	X23	Y23	Z23	X24	Y24	Z24	X25	Y25	Z25	X26	Y26	Z26	X27	Y27	Z27	X28	Y28	Z28	X29	Y29	Z29	X30	Y30	Z30	X31	Y31	Z31	X32	Y32	Z32	X33	Y33	Z33	X34	Y34	Z34	X35	Y35	Z35	X36	Y36	Z36	X37	Y37	Z37	X38	Y38	Z38	X39	Y39	Z39	X40	Y40	Z40	X41	Y41	Z41	X42	Y42	Z42	X43	Y43	Z43	X44	Y44	Z44	X45	Y45	Z45	X46	Y46	Z46	X47	Y47	Z47	X48	Y48	Z48	X49	Y49	Z49	X50	Y50	Z50	X51	Y51	Z51	X52	Y52	Z52	X53	Y53	Z53	X54	Y54	Z54	X55	Y55	Z55	X56	Y56	Z56	X57	Y57	Z57	X58	Y58	Z58	X59	Y59	Z59	

296	1.180	208.46222	71.07296	688.39020	39.06001	67.74510	819.58972	-96.00409	67.88667	865.03925	196.18147	-31.23865	727.17639	155.58156	-11.89008	588.88416	202.39769	-52.12073	650.60681	179.03287	-137.13528	603.49945	87.57201	-179.62576	493.15689	-9.04594	-122.83839	411.91373	74.18675	-185.59435	403.18204	26.59924	-201.91884	260.46716	-47.08478	-203.41255	130.86397	-2.62025	-166.14096	119.47268	-30.97139	-218.65527	95.34689	181.97168	188.11626	734.95007	141.90309	167.54124	592.05511	184.27667	216.97049	643.14844	157.60216	296.50479	592.76611	42.22923	335.71158	519.11145	-6.15661	281.05673	411.53232	70.00033	344.54196	408.83984	-21.34261	358.19937	294.96179	-61.33682	356.54443	128.46431	-13.01535	318.90784	105.31290	-32.45797	371.06760	93.27992	426.77875	80.25890	566.85211	378.72223	72.63277	464.11285	375.80011	77.49362	671.73285	-293.84283	84.68982	898.56714	-220.30328	-12.32213	696.05133	-198.93163	141.96130	684.92432	-201.37558	-76.34975	810.50488	-176.83186	211.82660	788.69196	-339.29617	-105.42255	796.99878	-256.72974	-41.37821	594.76349	-425.04715	40.64602	367.80093	-403.35028	-71.31677	368.34930	-454.56656	-8.77712	272.56519	-499.02692	-85.68552	297.96304	-773.82465	28.35348	212.95555	-785.66272	-60.57185	223.34116	-834.53522	-11.82949	273.07770	-763.57275	-6.18261	58.75762	-771.90601	-65.02240	62.80896	-273.37286	263.14020	787.09705	-264.37497	264.54416	621.50989	-221.37799	110.08545	392.79126	-191.19894	215.58891	383.13812	-220.29803	159.62781	282.58514	-323.94150	234.94873	311.59875	-539.58459	121.74901	201.73692	-561.44519	213.50859	213.21725	-609.11884	162.07845	258.49536	-512.07068	131.46988	51.49852	-508.65665	205.20932	58.68783	-596.86224	266.51175	25.61445	-930.83698	-121.67985	33.36033	-520.12097	70.93266	45.01377	-1120.17664	77.79617	55.91204	
297	1.184	208.32803	71.08133	688.41284	39.30405	67.70264	819.82733	-95.66291	67.81584	865.56207	196.24463	-31.22647	727.15399	155.43010	-11.86617	588.91937	202.40352	-52.06941	650.53113	179.09753	-137.05070	603.42493	87.62641	-179.62752	493.17001	-9.04961	-122.94724	411.96243	74.20609	-185.58389	403.20712	26.70110	-201.89705	260.33179	-47.06016	-203.41747	130.85530	-2.60694	-166.16994	119.48774	-30.94834	-218.66197	95.36340	181.98358	188.08191	734.94739	141.82596	167.49203	592.06744	184.27060	216.89325	643.17365	157.54843	296.39526	592.76160	42.24273	335.69263	519.13232	-6.21467	281.08331	411.51025	70.01147	344.52423	408.84619	-21.33733	358.19885	294.97205	-61.31725	356.54016	128.47844	-13.01507	318.90521	105.31521	-32.46132	371.08072	93.29473	426.63815	80.27576	567.04053	378.64545	72.69775	464.29831	375.60275	77.49940	671.88446	-293.44647	84.53839	899.58838	-220.30362	-12.46304	696.93896	-198.94600	141.82663	685.78613	-201.13654	-76.48321	811.34131	-176.66940	211.71011	789.47754	-339.06348	-105.58629	798.13367	-256.89615	-41.56290	595.75403	-425.57343	40.53625	368.98972	-403.83289	-71.48994	369.53116	-454.91888	-8.84183	273.67188	-499.43567	-85.78844	298.89087	-774.08234	28.38392	213.04236	-785.83002	-60.53837	223.48155	-834.73914	-11.78313	273.09250	-763.61090	-6.16741	58.77138	-771.90662	-65.02273	62.80842	-273.21448	263.01837	788.10474	-264.55789	264.38126	622.46472	-221.86252	110.02383	393.56906	-191.61023	215.42467	384.00522	-220.59175	159.53180	283.36679	-324.30032	234.86505	312.11548	-539.76642	121.69764	201.76190	-561.51239	213.51265	213.19485	-609.30322	162.06427	258.45322	-512.08502	131.47795	51.54611	-508.70279	205.24606	58.74648	-596.86176	266.51224	25.61455	-930.83478	-121.67874	33.35616	-520.13232	70.94344	45.00050	-1120.18054	77.79605	55.91625	
298	1.188	208.19273	71.09090	688.43274	39.53473	67.65868	820.05298	-95.32594	67.73943	866.07593	196.30498	-31.21307	727.13672	155.28290	-11.84183	588.95807	202.41100	-52.01752	650.45837	179.15903	-136.96588	603.35651	87.67049	-179.62695	493.18124	-9.05511	-123.04444	412.00665	74.22030	-185.57518	403.22821	26.80767	-201.86211	260.17032	-47.04104	-203.42258	130.84669	-2.59711	-166.19684	119.50308	-30.93023	-218.66783	95.37896	181.99043	188.04640	734.94098	141.75333	167.45708	592.07123	184.26514	216.82462	643.19989	157.49800	296.29343	592.75806	42.25635	335.67691	519.15131	-6.28847	281.10867	411.48166	70.01933	344.50320	408.85605	-21.33241	358.19757	294.98413	-61.30182	356.53683	128.48940	-13.01661	318.90317	105.31606	-32.46296	371.09039	93.31373	426.49954	80.28912	567.23071	378.56097	72.76773	464.47284	375.40836	77.50288	672.03516	-293.05148	84.38831	900.59619	-220.30846	-12.60374	697.81451	-198.95999	141.69162	686.63770	-200.90494	-76.61829	812.16455	-176.50439	211.60083	790.25281	-338.83405	-105.74775	799.25641	-257.06546	-41.72628	596.72406	-426.09418	40.42758	370.16299	-404.30182	-71.66072	370.69952	-455.27863	-8.92446	274.74918	-499.83102	-85.90167	299.81250	-774.33484	28.42328	213.13257	-785.98438	-60.50862	223.61293	-834.93610	-11.73668	273.10730	-763.65210	-6.14871	58.78423	-771.90729	-65.02361	62.80722	-273.06146	262.90494	789.10101	-264.75116	264.21518	623.40125	-222.35645	109.96613	394.32895	-192.03494	215.27002	384.85977	-220.89841	159.44751	284.12299	-324.66306	234.77013	312.60294	-539.95905	121.65455	201.78966	-561.59070	213.50684	213.16681	-609.50696	162.04761	258.40723	-512.09961	131.48534	51.59118	-508.75607	205.28716	58.80900	-596.86157	266.51276	25.61455	-930.83282	-121.67690	33.35183	-520.14154	70.96227	44.99173	-1120.18420	77.79559	55.92022	
299	1.192	208.05763	71.10141	688.44946	39.75143	67.61353	820.26788	-94.99269	67.65660	866.58228	196.36264	-31.19825	727.12268	155.13950	-11.81565	588.99847	202.41933	-51.96411	650.38837	179.21814	-136.88222	603.29553	87.70592	-179.62439	493.18997	-9.06269	-123.13298	412.04535	74.23244	-185.56853	403.24384	26.91758	-201.81685	259.98822	-47.02588	-203.42815	130.83698	-2.59003	-166.22092	119.51781	-30.91707	-218.67278	95.39208	181.99258	188.00996	734.93030	141.68314	167.43504	592.06689	184.25845	216.76421	643.22656	157.45258	296.19965	592.75549	42.26888	335.66357	519.16827	-6.37485	281.12857	411.44672	70.02341	344.47696	408.86951	-21.32799	358.19272	294.99750	-61.29054	356.53412	128.49773	-13.01974	318.90146	105.31583	-32.46339	371.09717	93.33589	426.36423	80.30009	567.42572	378.47052	72.84084	464.63580	375.21622	77.50300	672.18640	-292.65796	84.24065	901.59045	-220.31770	-12.74393	698.67792	-198.97459	141.55672	687.47882	-200.68005	-76.75451	812.97467	-176.33841	211.49777	791.01758	-338.60965	-105.90782	800.36688	-257.23709	-41.86913	597.67303	-426.60629	40.31762	371.31967	-404.75781	-71.82990	371.85770	-455.64545	-9.02495	275.79688	-500.21158	-86.02589	300.72720	-774.57690	28.47087	213.22377	-786.12341	-60.48329	223.73262	-835.12396	-11.69080	273.12000	-763.69604	-6.12622	58.79586	-771.90802	-65.02483	62.80562	-272.91223	262.79846	790.08698	-264.95178	264.04584	624.32141	-222.85751	109.90746	395.07690	-192.47668	215.12630	385.70197	-221.21812	159.37334	284.85529	-325.02859	234.66650	313.06339	-540.16144	121.61914	201.82074	-561.68207	213.49011	213.13496	-609.72803	162.02814	258.35703	-512.11420	131.49115	51.63300	-508.81580	205.33095	58.87560	-596.86169	266.51358	25.61438	-930.83130	-121.67449	33.34769	-520.14807	70.98774	44.98741	-1120.18738	77.79486	55.92365	
300	1.196	207.92430	71.11234	688.46301	39.95409	67.56726	820.47363	-94.66225	67.56773	867.08246	196.41751	-31.18189	727.10974	155.00037	-11.78668	589.03833	202.42790	-51.90851	650.32135	179.27554	-136.80080	603.24261	87.73438	-179.62009	493.19553	-9.07295	-123.21542	412.07758	74.24585	-185.56369	403.25256	27.02818	-201.76503	259.79395	-47.01311	-203.43439	130.82483	-2.58533	-166.24097	119.53098	-30.90873	-218.67680	95.40154	181.99059	187.97284	734.91541	141.61284	167.42361	592.05566	184.24847	216.71140	643.25220	157.41313	296.11353	592.75378	42.27945	335.65192	519.18317	-6.47025	281.13834	411.40594	70.02284	344.44385	408.88654	-21.32429	358.18185	295.01160	-61.28329	356.53165	128.50398	-13.02434	318.89963	105.31485	-32.46320	371.10123	93.36013	426.23303	80.31036	567.62830	378.37607	72.91553	464.78711	375.02554	77.49936	672.33954	-292.26578	84.09601	902.57153	-220.33147	-12.88337	699.52924	-198.99153	141.42238	688.30951	-200.46066	-76.89141	813.77142	-176.17351	211.39914	791.77191	-338.39111	-106.06701	801.46484	-257.40958	-41.99432	598.60284	-427.10751	40.20368	372.45908	-405.20233	-71.99776	373.00790	-456.01788	-9.14145	276.81516	-500.57651	-86.16010	301.63358	-774.80383	28.52539	213.31335	-786.24530	-60.46237	223.83881	-835.30042	-11.64651	273.12854	-763.74249	-6.09985	58.80603	-771.90875	-65.02623	62.80383	-272.76544	262.69684	791.06323	-265.15482	263.87393	625.22675	-223.36263	109.84456	395.81934	-192.93723	214.99336	386.53183	-221.54863	159.30621	285.56583	-325.39639	234.55725	313.50061	-540.37103	121.59055	201.85594	-561.78845	213.46210	213.10144	-609.96405	162.00603	258.30234	-512.12860	131.49472	51.67122	-508.88116	205.37560	58.94602	-596.86230	266.51495	25.61400	-930.83032	-121.67165	33.34418	-520.15143	71.01803	44.98689	-1120.18994	77.79390	55.92627	
301	1.200	207.79437	71.12306	688.47375	40.14314	67.51945	820.67224	-94.33383	67.47409	867.57709	196.46938	-31.16398	727.09564	154.86647	-11.75486	589.07507	202.43636	-51.85051	650.25800	179.33173	-136.72241	603.19757	87.75783	-179.61424	493.19724	-9.08651	-123.29356	412.10211	74.26385	-185.56009	403.25314	27.13614	-201.71068	259.59732	-47.00131	-203.44145	130.80905	-2.58289	-166.25563	119.54164	-30.90485	-218.68004	95.40648	181.98523	187.93549	734.89685	141.53972	167.41968	592.03955	184.23312	216.66534	643.27490	157.38004	296.03427	592.75275	42.28733	335.64108	519.19617	-6.57152	281.13358	411.35986	70.01678	344.40259	408.90683	-21.32170	358.16312	295.02609	-61.27995	356.52914	128.50856	-13.03040	318.89737	105.31335	-32.46277	371.10248	93.38520	426.10651	80.32195	567.84039	378.27951	72.99055	464.92752	374.83563	77.49213	672.49640	-291.87469	83.95438	903.53979	-220.34912	-13.02179	700.36816	-199.01175	141.28911	689.12958	-200.24518	-77.02874	814.55450	-176.01106	211.30286	792.51593	-338.17831	-106.22523	802.54987	-257.58060	-42.10558	599.51721	-427.59680	40.08366	373.58136	-405.63660	-72.16352	374.14969	-456.39352	-9.27096	277.80508	-500.92581	-86.30162	302.53055	-775.01196	28.58509	213.39894	-786.34900	-60.44545	223.93073	-835.46350	-11.60489	273.13184	-763.79089	-6.06973	58.81451	-771.90942	-65.02767	62.80200	-272.62048	262.59726	792.02924	-265.35373	263.70078	626.11725	-223.86705	109.77561	396.56174	-193.41591	214.86969	387.34879	-221.88727	159.24477	286.25665	-325.76678	234.44548	313.91974	-540.58459	121.56807	201.89603	-561.91162	213.42310	213.06860	-610.21167	161.98199	258.24347	-512.14276	131.49544	51.70590	-508.95093	205.41916	59.01960	-596.86328	266.51712	25.61337	-930.82983	-121.66850	33.34163	-520.15125	71.05130	44.98938	-1120.19189	77.79276	55.92789	
